<svg width="3560" height="507" viewBox="0 0 3560 507" fill="none" xmlns="http://www.w3.org/2000/svg">
<path d="M326.446 387.32C354.015 371.446 376.098 347.584 389.692 318.981L481.801 161.665C499.489 206.091 503.702 254.829 493.923 301.924C484.143 349.016 460.797 392.423 426.737 426.841C392.674 461.26 349.372 485.197 302.122 495.73C254.872 506.265 205.723 502.935 160.673 486.154C140.045 479.598 118.208 477.439 96.5787 479.818C74.9475 482.198 54.0093 489.063 35.1211 499.965C31.3399 502.149 27.6668 504.27 24.687 506.843L107.566 365.226L121.401 343.032C143.475 374.645 176.793 396.736 214.761 404.936C252.731 413.138 292.586 406.851 326.446 387.32ZM339.316 22.1554C359.882 28.6103 381.631 30.7043 403.165 28.3026C424.702 25.9009 445.547 19.0567 464.361 8.21001C468.467 5.83985 472.462 3.5319 476.09 0.584961L391.327 145.421L379.113 166.68C363.417 143.38 341.546 124.866 315.873 113.145C290.2 101.425 261.702 96.9433 233.468 100.189C205.233 103.436 178.34 114.284 155.702 131.558C133.064 148.832 115.545 171.876 105.041 198.188L17.8179 347.996C-0.225299 303.462 -4.68543 254.504 4.98755 207.155C14.6605 159.806 38.0439 116.138 72.2528 81.5381C106.462 46.94 150.002 22.9199 197.504 12.4433C245.004 1.96658 294.387 5.49093 339.562 22.5815L339.316 22.1554Z" fill="#3497E1"/>
<path d="M751.139 203.836C799.694 203.836 841.313 240.41 841.313 294.641C841.313 350.763 799.694 386.076 751.139 386.076C701.954 386.076 662.857 348.871 662.857 294.641C662.857 238.518 701.954 203.836 751.139 203.836ZM846.358 9.61523V181.766C828.071 149.606 776.993 131.949 744.203 131.949C653.398 131.949 585.926 187.441 585.926 294.641C585.926 396.795 654.66 457.332 746.095 457.332C783.93 457.332 822.395 444.72 846.358 407.515L851.402 450.395H923.289V9.61523H846.358ZM1230.19 182.396C1212.54 151.498 1172.81 131.949 1131.19 131.949C1040.39 131.319 969.131 187.441 969.131 294.641C969.131 403.732 1037.23 460.485 1129.3 459.854C1163.98 459.223 1212.54 441.567 1230.19 404.993L1233.98 450.395H1306.49V139.517H1232.72L1230.19 182.396ZM1138.13 200.683C1259.2 200.683 1259.2 389.228 1138.13 389.228C1087.05 389.228 1046.06 353.916 1046.06 294.641C1046.06 235.366 1087.05 200.683 1138.13 200.683ZM1405.3 60.0627V140.147H1347.29V206.359H1405.3V340.673C1405.3 418.235 1449.44 456.701 1516.92 454.179C1540.25 453.548 1558.53 449.765 1580.61 440.936L1559.17 375.356C1547.81 381.031 1533.94 384.814 1521.96 384.814C1498 384.814 1481.6 370.311 1481.6 340.673V206.359H1567.99V140.147H1482.23V51.8651L1405.3 60.0627ZM1856.2 182.396C1838.54 151.498 1798.81 131.949 1757.19 131.949C1666.39 131.319 1595.13 187.441 1595.13 294.641C1595.13 403.732 1663.24 460.485 1755.3 459.854C1789.99 459.223 1838.54 441.567 1856.2 404.993L1859.98 450.395H1932.5V139.517H1858.72L1856.2 182.396ZM1764.13 200.683C1885.2 200.683 1885.2 389.228 1764.13 389.228C1713.05 389.228 1672.07 353.916 1672.07 294.641C1672.07 235.366 1713.05 200.683 1764.13 200.683ZM2211.66 360.222C2192.74 379.139 2168.15 386.076 2143.56 386.076C2095.63 386.076 2055.27 354.546 2055.27 295.271C2055.27 241.041 2093.11 203.206 2144.82 203.206C2166.26 203.206 2188.96 211.403 2207.25 227.799L2255.8 176.721C2221.75 143.3 2187.7 130.688 2143.56 130.688C2053.38 130.688 1978.34 184.919 1978.34 295.271C1978.34 405.624 2053.38 459.854 2143.56 459.854C2189.59 459.854 2227.42 445.981 2263.37 410.668L2211.66 360.222ZM2430.58 133.211C2331.58 133.211 2269.78 206.359 2269.78 295.271C2269.78 384.814 2330.32 457.332 2431.21 457.332C2532.1 457.332 2593.27 384.814 2593.27 295.271C2593.27 206.359 2529.58 133.211 2430.58 133.211ZM2431.21 203.206C2482.92 203.206 2515.71 248.608 2515.71 295.271C2515.71 342.565 2487.33 386.706 2431.21 386.706C2375.09 386.706 2346.71 342.565 2346.71 295.271C2346.71 248.608 2375.72 203.206 2431.21 203.206ZM2857.11 138.886L2814.23 242.933L2766.93 372.833L2719.01 241.671L2676.13 138.886H2592.26L2725.31 451.656H2808.55L2940.97 138.886H2857.11ZM3263.58 322.386C3275.56 194.377 3210.61 130.058 3106.57 130.058C3005.67 130.058 2941.35 198.161 2941.35 292.749C2941.35 392.381 3005.04 458.593 3112.24 458.593C3159.54 458.593 3213.14 442.198 3245.93 408.146L3196.74 359.591C3179.08 377.878 3141.88 388.598 3113.5 388.598C3059.27 388.598 3025.85 360.852 3020.81 322.386H3263.58ZM3022.07 258.697C3033.42 218.34 3067.47 198.161 3109.09 198.161C3153.23 198.161 3184.76 218.34 3189.8 258.697H3022.07ZM3545.5 171.676C3509.55 140.147 3472.98 130.688 3424.42 130.688C3367.67 130.688 3293.26 155.912 3293.26 227.799C3293.26 298.424 3363.26 319.864 3421.9 324.278C3466.04 326.8 3483.7 338.782 3483.7 360.222C3483.7 382.923 3456.58 394.904 3427.58 394.273C3392.89 393.643 3350.01 381.661 3320.38 350.763L3282.54 405.624C3327.94 452.918 3377.13 461.115 3426.32 461.115C3515.23 461.115 3560 413.821 3560 358.96C3560 276.354 3485.59 263.111 3426.95 259.328C3387.22 256.805 3368.93 245.455 3368.93 225.276C3368.93 205.728 3389.11 194.377 3425.68 194.377C3455.32 194.377 3480.55 201.314 3502.62 222.123L3545.5 171.676Z" fill="black"/>
</svg>
